<?xml version="1.0" standalone="no"?>
<!DOCTYPE svg PUBLIC "-//W3C//DTD SVG 20010904//EN"
 "http://www.w3.org/TR/2001/REC-SVG-20010904/DTD/svg10.dtd">
<svg version="1.0" xmlns="http://www.w3.org/2000/svg"
 width="512.000000pt" height="512.000000pt" viewBox="0 0 512.000000 512.000000"
 preserveAspectRatio="xMidYMid meet">
<metadata>
Created by potrace 1.11, written by Peter Selinger 2001-2013
</metadata>
<g transform="translate(0.000000,512.000000) scale(0.100000,-0.100000)"
fill="#000000" stroke="none">
<path d="M1063 5103 c-177 -23 -246 -45 -403 -123 -120 -60 -201 -120 -305
-224 -156 -156 -261 -339 -315 -546 -13 -48 -14 -53 -29 -145 -6 -38 -9 -603
-8 -1540 3 -1381 4 -1485 21 -1555 76 -320 234 -562 484 -742 76 -55 271 -155
315 -162 9 -1 20 -5 23 -9 4 -4 17 -7 29 -7 12 0 25 -3 29 -7 3 -4 17 -8 29
-10 12 -2 47 -8 77 -15 66 -14 2942 -20 3042 -6 62 8 213 43 253 58 11 4 23 8
28 9 4 0 22 8 40 18 17 9 37 18 43 19 20 3 146 80 214 130 82 59 194 174 254
257 40 56 157 268 156 282 -1 3 8 33 19 68 54 176 53 144 53 1702 0 792 -3
1460 -6 1485 -4 25 -12 70 -17 100 -6 30 -12 64 -14 75 -2 11 -4 21 -5 23 -2
1 -3 5 -4 10 -1 4 -7 16 -13 27 -6 11 -11 22 -10 25 4 32 -80 198 -153 303
-72 105 -255 287 -287 287 -6 0 -16 7 -23 15 -23 28 -238 136 -299 151 -9 2
-41 10 -71 18 -30 9 -73 18 -95 21 -22 3 -53 9 -70 12 -16 4 -674 7 -1462 7
-1050 1 -1456 -2 -1520 -11z"/>
</g>
</svg>
